<?xml version="1.0" encoding="UTF-8"?>
<svg width="429px" height="429px" viewBox="0 0 429 429" version="1.1" xmlns="http://www.w3.org/2000/svg" xmlns:xlink="http://www.w3.org/1999/xlink">
    <!-- Generator: Sketch 52.1 (67048) - http://www.bohemiancoding.com/sketch -->
    <title>iconfinder_play_1055007</title>
    <desc>Created with Sketch.</desc>
    <g id="Page-1" stroke="none" stroke-width="1" fill="none" fill-rule="evenodd">
        <g id="iconfinder_play_1055007">
            <circle id="Oval" fill="#C75C5C" cx="214.5" cy="214.5" r="214.5"></circle>
            <path d="M214.5,106.818182 C281.042614,106.818182 335.181818,160.957386 335.181818,227.5 C335.181818,294.042614 281.042614,348.181818 214.5,348.181818 C147.957386,348.181818 93.8181818,294.042614 93.8181818,227.5 C93.8181818,160.957386 147.957386,106.818182 214.5,106.818182 Z M214.5,80 C133.039773,80 67,146.039773 67,227.5 C67,308.960227 133.039773,375 214.5,375 C295.960227,375 362,308.960227 362,227.5 C362,146.039773 295.960227,80 214.5,80 Z" id="Shape" fill="#231F20" fill-rule="nonzero" opacity="0.2"></path>
            <path d="M214.5,93.8181818 C281.042614,93.8181818 335.181818,147.957386 335.181818,214.5 C335.181818,281.042614 281.042614,335.181818 214.5,335.181818 C147.957386,335.181818 93.8181818,281.042614 93.8181818,214.5 C93.8181818,147.957386 147.957386,93.8181818 214.5,93.8181818 Z M214.5,67 C133.039773,67 67,133.039773 67,214.5 C67,295.960227 133.039773,362 214.5,362 C295.960227,362 362,295.960227 362,214.5 C362,133.039773 295.960227,67 214.5,67 Z" id="Shape" fill="#E0E0D1" fill-rule="nonzero"></path>
            <path d="M184.924197,154.986537 C189.853363,153.662179 192.90923,153 194.091797,153 C195.269599,153 198.272486,153.656854 203.100456,154.970562 L203.100457,154.970561 C206.583163,155.918217 209,159.080559 209,162.689893 L209,292.734698 C209,296.269791 206.679784,299.385783 203.293016,300.399036 C197.984696,301.987179 194.739563,302.78125 193.557617,302.78125 C192.395011,302.78125 189.400238,302.012953 184.573297,300.476358 L184.573297,300.47636 C181.254018,299.41971 179,296.3367 179,292.853294 L179.000005,162.712529 C179.000005,159.093707 181.429321,155.925532 184.924197,154.986537 Z" id="Rectangle" fill="#A65050" fill-rule="nonzero"></path>
            <path d="M174.924197,141.986537 C179.853363,140.662179 182.90923,140 184.091797,140 C185.269599,140 188.272486,140.656854 193.100456,141.970562 L193.100457,141.970561 C196.583163,142.918217 199,146.080559 199,149.689893 L199,279.734698 C199,283.269791 196.679784,286.385783 193.293016,287.399036 C187.984696,288.987179 184.739563,289.78125 183.557617,289.78125 C182.395011,289.78125 179.400238,289.012953 174.573297,287.476358 L174.573297,287.47636 C171.254018,286.41971 169,283.3367 169,279.853294 L169.000005,149.712529 C169.000005,146.093707 171.429321,142.925532 174.924197,141.986537 Z" id="Rectangle" fill="#F5CF87" fill-rule="nonzero"></path>
            <path d="M244.924197,154.986537 C249.853363,153.662179 252.90923,153 254.091797,153 C255.269599,153 258.272486,153.656854 263.100456,154.970562 L263.100457,154.970561 C266.583163,155.918217 269,159.080559 269,162.689893 L269,292.734698 C269,296.269791 266.679784,299.385783 263.293016,300.399036 C257.984696,301.987179 254.739563,302.78125 253.557617,302.78125 C252.395011,302.78125 249.400238,302.012953 244.573297,300.476358 L244.573297,300.47636 C241.254018,299.41971 239,296.3367 239,292.853294 L239.000005,162.712529 C239.000005,159.093707 241.429321,155.925532 244.924197,154.986537 Z" id="Rectangle" fill="#A65050" fill-rule="nonzero"></path>
            <path d="M234.924197,141.986537 C239.853363,140.662179 242.90923,140 244.091797,140 C245.269599,140 248.272486,140.656854 253.100456,141.970562 L253.100457,141.970561 C256.583163,142.918217 259,146.080559 259,149.689893 L259,279.734698 C259,283.269791 256.679784,286.385783 253.293016,287.399036 C247.984696,288.987179 244.739563,289.78125 243.557617,289.78125 C242.395011,289.78125 239.400238,289.012953 234.573297,287.476358 L234.573297,287.47636 C231.254018,286.41971 229,283.3367 229,279.853294 L229.000005,149.712529 C229.000005,146.093707 231.429321,142.925532 234.924197,141.986537 Z" id="Rectangle" fill="#F5CF87" fill-rule="nonzero"></path>
        </g>
    </g>
</svg>