<?xml version="1.0" encoding="UTF-8"?>
<svg width="429px" height="429px" viewBox="0 0 429 429" version="1.1" xmlns="http://www.w3.org/2000/svg" xmlns:xlink="http://www.w3.org/1999/xlink">
    <!-- Generator: Sketch 52.1 (67048) - http://www.bohemiancoding.com/sketch -->
    <title>iconfinder_play_1055007</title>
    <desc>Created with Sketch.</desc>
    <g id="Page-1" stroke="none" stroke-width="1" fill="none" fill-rule="evenodd">
        <g id="iconfinder_play_1055007">
            <circle id="Oval" fill="#C75C5C" cx="214.5" cy="214.5" r="214.5"></circle>
            <path d="M214.5,106.818182 C281.042614,106.818182 335.181818,160.957386 335.181818,227.5 C335.181818,294.042614 281.042614,348.181818 214.5,348.181818 C147.957386,348.181818 93.8181818,294.042614 93.8181818,227.5 C93.8181818,160.957386 147.957386,106.818182 214.5,106.818182 Z M214.5,80 C133.039773,80 67,146.039773 67,227.5 C67,308.960227 133.039773,375 214.5,375 C295.960227,375 362,308.960227 362,227.5 C362,146.039773 295.960227,80 214.5,80 Z" id="Shape" fill="#231F20" fill-rule="nonzero" opacity="0.2"></path>
            <g id="Group" opacity="0.2" transform="translate(174.000000, 156.000000)" fill="#231F20">
                <path d="M13.375,142.454227 C11.0678125,142.454227 8.760625,141.859545 6.6875,140.6635 C2.5479375,138.278091 0,133.861409 0,129.090591 L0,13.9094091 C0,9.13859091 2.5479375,4.72190909 6.6875,2.3365 C10.8270625,-0.0489090909 15.9229375,-0.0489090909 20.0625,2.3365 L100.3125,59.9270909 C104.452062,62.3125 107,66.7225 107,71.5 C107,76.2775 104.452062,80.6875 100.3125,83.0729091 L20.0625,140.6635 C17.989375,141.852864 15.6821875,142.454227 13.375,142.454227 Z" id="Path"></path>
            </g>
            <path d="M214.5,93.8181818 C281.042614,93.8181818 335.181818,147.957386 335.181818,214.5 C335.181818,281.042614 281.042614,335.181818 214.5,335.181818 C147.957386,335.181818 93.8181818,281.042614 93.8181818,214.5 C93.8181818,147.957386 147.957386,93.8181818 214.5,93.8181818 Z M214.5,67 C133.039773,67 67,133.039773 67,214.5 C67,295.960227 133.039773,362 214.5,362 C295.960227,362 362,295.960227 362,214.5 C362,133.039773 295.960227,67 214.5,67 Z" id="Shape" fill="#E0E0D1" fill-rule="nonzero"></path>
            <path d="M187.375,286 C185.067813,286 182.760625,285.404928 180.6875,284.208096 C176.547937,281.82112 174,277.401537 174,272.627585 L174,157.370743 C174,152.596791 176.547937,148.177208 180.6875,145.790232 C184.827063,143.403256 189.922937,143.403256 194.0625,145.790232 L274.3125,203.418653 C278.452063,205.805629 281,210.218526 281,214.999164 C281,219.773116 278.452063,224.192699 274.3125,226.579675 L194.0625,284.208096 C191.989375,285.398241 189.682187,286 187.375,286 Z" id="Path" fill="#F5CF87"></path>
        </g>
    </g>
</svg>