<?xml version="1.0" encoding="UTF-8"?>
<svg width="300px" height="338px" viewBox="0 0 300 338" version="1.1" xmlns="http://www.w3.org/2000/svg" xmlns:xlink="http://www.w3.org/1999/xlink">
    <!-- Generator: Sketch 52.1 (67048) - http://www.bohemiancoding.com/sketch -->
    <title>iconfinder_rain_727683</title>
    <desc>Created with Sketch.</desc>
    <g id="Page-1" stroke="none" stroke-width="1" fill="none" fill-rule="evenodd">
        <g id="iconfinder_rain_727683" fill="#E0E0D1">
            <path d="M0.790780037,208.785 C0.790780037,208.785 0.161,366.926 66.333,333.258 C129.046,301.35 0.790780037,208.785 0.790780037,208.785 Z" id="Path"></path>
            <path d="M115.762797,215.658 C115.762797,215.658 115.211,350.631 171.7,321.891 C225.227,294.659 115.762797,215.658 115.762797,215.658 Z" id="Path"></path>
            <path d="M68.662,161.842 C122.181,134.618 12.7517871,55.609 12.7517871,55.609 C12.7517871,55.609 12.191,190.58 68.662,161.842 Z" id="Path"></path>
            <path d="M224.481768,160.353 C224.481768,160.353 223.904,295.325 280.41,266.586 C333.921,239.362 224.481768,160.353 224.481768,160.353 Z" id="Path"></path>
            <path d="M121.436807,0.303 C121.436807,0.303 120.894,135.275 177.365,106.536 C230.893,79.303 121.436807,0.303 121.436807,0.303 Z" id="Path"></path>
            <path d="M153.152,194.136 C192.215,174.267 112.329852,116.597 112.329852,116.597 C112.329852,116.597 111.927,215.125 153.152,194.136 Z" id="Path"></path>
            <path d="M288.852,153.707 C327.915,133.839 248.028852,76.168 248.028852,76.168 C248.028852,76.168 247.626,174.696 288.852,153.707 Z" id="Path"></path>
        </g>
    </g>
</svg>