<?xml version="1.0" encoding="UTF-8"?>
<svg width="414px" height="398px" viewBox="0 0 414 398" version="1.1" xmlns="http://www.w3.org/2000/svg" xmlns:xlink="http://www.w3.org/1999/xlink">
    <!-- Generator: Sketch 52.1 (67048) - http://www.bohemiancoding.com/sketch -->
    <title>iconfinder_121_Alpine_Arctic_Canada_Pine_Trees_Scandinavia_4783091</title>
    <desc>Created with Sketch.</desc>
    <g id="Page-1" stroke="none" stroke-width="1" fill="none" fill-rule="evenodd">
        <g id="iconfinder_121_Alpine_Arctic_Canada_Pine_Trees_Scandinavia_4783091" fill="#E0E0D1" fill-rule="nonzero">
            <path d="M383.746,247.643 C379.944,242.275 379.466,235.298 382.496,229.44 C385.44,223.746 391.196,220.204 397.517,220.204 C399.144,220.204 399.931,219.014 400.194,218.506 C400.422,218.068 401.075,216.496 399.957,214.918 L357.561,155.012 C354.264,150.356 353.849,144.238 356.477,139.157 C359.036,134.211 364.038,131 369.533,131 L370.542,131 C372.861,131 373.937,129.449 374.292,128.723 C374.593,128.107 375.447,126.071 373.801,123.957 L295.111,22.937 L262.848,61.168 C262.847,61.169 262.846,61.171 262.845,61.173 L209.977,123.822 C209.097,124.865 208.864,125.946 208.887,126.845 C208.902,127.407 209.017,127.898 209.137,128.265 C209.209,128.485 209.283,128.661 209.338,128.78 C209.687,129.53 210.754,131.276 213.127,131.276 C218.622,131.276 223.624,134.349 226.183,139.295 C228.811,144.376 228.395,150.425 225.098,155.081 L182.702,214.952 C181.584,216.53 182.238,218.084 182.465,218.523 C182.728,219.031 183.514,220.212 185.142,220.212 C187.512,220.212 189.803,220.709 191.895,221.631 C195.383,223.168 198.321,225.884 200.162,229.443 C202.056,233.105 202.579,237.203 201.777,241.072 C201.296,243.393 200.338,245.633 198.912,247.645 L171.755,285.991 C171.523,286.319 171.313,286.649 171.112,286.98 C171.02,287.134 170.935,287.291 170.848,287.446 C170.755,287.612 170.664,287.778 170.579,287.945 C170.474,288.153 170.372,288.362 170.278,288.573 C170.233,288.672 170.19,288.771 170.148,288.87 C170.04,289.124 169.935,289.379 169.842,289.637 C169.834,289.659 169.824,289.681 169.816,289.703 C169.489,290.626 169.252,291.57 169.116,292.526 C169.113,292.546 169.098,292.564 169.096,292.584 C169.071,292.765 169.036,292.946 169.019,293.128 C169,293.323 168.936,293.52 168.926,293.714 C168.921,293.805 168.836,293.896 168.833,293.986 C168.823,294.282 168.655,294.577 168.655,294.868 C168.655,294.878 168.655,294.888 168.655,294.897 C168.655,296.673 169.247,298.36 169.82,299.871 C169.824,299.881 169.998,299.89 170.002,299.899 C170.106,300.173 170.219,300.438 170.336,300.701 C170.391,300.823 170.451,300.94 170.509,301.061 C170.587,301.223 170.663,301.377 170.745,301.535 C170.841,301.718 170.942,301.876 171.044,302.053 C171.1,302.151 171.153,302.215 171.211,302.311 C173.787,306.565 178.148,308.999 183.068,308.999 L249.079,308.999 C259.939,308.999 268.655,318.161 268.655,329.24 L268.655,370.239 C268.655,377.98 272.923,384.773 279.1,387.999 L158.655,387.999 L158.655,317.643 C158.655,316.505 159.216,315.41 159.914,314.532 C160.176,313.657 160.586,311.571 160.733,310.28 C160.936,308.499 161.124,306.849 161.48,305.389 C161.407,305.237 161.347,305.079 161.277,304.926 C161.161,304.672 161.048,304.418 160.942,304.161 C160.837,303.908 160.738,303.653 160.642,303.397 C160.533,303.108 160.427,302.82 160.329,302.529 C160.257,302.313 160.19,302.096 160.124,301.879 C160.02,301.541 159.92,301.201 159.831,300.86 C159.789,300.698 159.751,300.534 159.712,300.371 C159.617,299.973 159.527,299.574 159.452,299.173 C159.433,299.071 159.418,298.97 159.4,298.868 C159.319,298.407 159.248,297.946 159.193,297.483 C159.189,297.443 159.185,297.403 159.181,297.363 C158.691,293.03 159.34,288.63 161.114,284.597 C161.115,284.594 161.117,284.59 161.119,284.587 C161.34,284.086 161.576,283.591 161.831,283.102 C161.894,282.982 161.967,282.866 162.032,282.746 C162.234,282.374 162.436,282.003 162.658,281.639 C162.849,281.326 163.059,281.021 163.265,280.715 C163.377,280.548 163.479,280.376 163.596,280.212 L190.75,241.865 C192.407,239.526 192.604,236.599 191.279,234.037 C190.04,231.641 187.745,230.212 185.141,230.212 C180.274,230.212 175.845,227.493 173.581,223.116 C171.26,218.628 171.627,213.285 174.539,209.172 L216.936,149.301 C218.08,147.685 218.216,145.662 217.299,143.889 C216.892,143.103 215.672,141.276 213.125,141.276 C207.567,141.276 202.641,138.103 200.267,132.994 C199.354,131.029 198.894,128.959 198.872,126.908 C198.835,123.489 200.014,120.121 202.331,117.374 L249.041,62.021 C248.659,61.169 248.517,60.212 248.657,59.254 C249.025,56.739 249.212,54.198 249.212,51.702 C249.212,23.193 226.019,0 197.51,0 C169.001,0 145.808,23.193 145.808,51.702 C145.808,52.991 145.87,54.376 145.996,55.938 C146.177,58.164 144.859,60.24 142.768,61.024 C140.676,61.81 138.318,61.11 136.991,59.314 C129.728,49.485 118.111,43.617 105.914,43.617 C99.597,43.617 93.325,45.18 87.777,48.139 C85.779,49.203 83.319,48.794 81.773,47.143 C74.383,39.244 64.369,34.893 53.573,34.893 C32.28,34.893 14.956,52.217 14.956,73.51 C14.956,91.643 27.29,107.12 44.951,111.148 C46.727,111.553 48.143,112.893 48.645,114.645 C49.147,116.397 48.657,118.283 47.365,119.568 C43.342,123.571 41.126,128.901 41.126,134.574 C41.126,134.746 41.133,134.918 41.139,135.089 L41.146,135.284 C41.224,137.722 39.532,139.861 37.141,140.345 C19.232,143.971 6.233,159.887 6.233,178.191 C6.233,199.485 23.557,216.808 44.85,216.808 C45.204,216.808 45.555,216.794 45.906,216.783 L46.192,216.773 C47.834,216.717 49.418,217.484 50.394,218.819 C51.37,220.154 51.623,221.885 51.069,223.444 C50.26,225.721 49.849,228.106 49.849,230.532 C49.849,242.205 59.346,251.702 71.019,251.702 C72.348,251.702 73.696,251.572 75.029,251.317 C76.964,250.944 78.938,251.748 80.067,253.363 C81.197,254.979 81.269,257.108 80.254,258.8 C77.48,263.425 76.008,268.733 76.008,274.149 C76.008,290.633 89.407,304.044 105.891,304.044 C107.144,304.044 108.388,303.959 109.738,303.785 C111.753,303.53 113.686,304.514 114.686,306.282 C117.415,311.107 121.354,315.083 126.241,317.779 C127.836,318.659 128.653,320.336 128.653,322.157 L128.653,387.999 L5,387.999 C2.239,387.999 0,390.237 0,392.999 C0,395.761 2.239,397.999 5,397.999 L395,397.999 C397.762,397.999 400,395.761 400,392.999 C400,390.237 397.762,387.999 395,387.999 L295.33,387.999 C301.454,384.854 305.655,378.314 305.655,370.744 L305.655,329.24 C305.655,318.161 314.843,308.999 325.704,308.999 L399.587,308.999 C404.847,308.999 409.469,306.207 411.952,301.405 C414.573,296.338 414.18,290.584 410.9,285.953 L383.746,247.643 Z M108.988,219.895 C107.938,219.964 106.909,219.999 105.901,219.999 C96.61,219.999 89.087,217.032 83.505,211.158 C71.048,198.049 73.576,175.282 73.69,174.319 C74.014,171.576 76.498,169.619 79.242,169.94 C81.982,170.264 83.942,172.746 83.622,175.485 C83.589,175.775 81.571,194.637 90.775,204.292 C94.874,208.59 100.615,210.436 108.323,209.916 C111.082,209.754 113.461,211.818 113.644,214.572 C113.827,217.329 111.743,219.712 108.988,219.895 Z M237.384,194.03 L308.236,146.796 C310.534,145.264 313.637,145.885 315.17,148.183 C316.703,150.481 316.081,153.585 313.783,155.117 L242.931,202.351 C242.078,202.919 241.116,203.192 240.162,203.192 C238.546,203.192 236.961,202.41 235.997,200.964 C234.465,198.666 235.086,195.562 237.384,194.03 Z M352.942,218.223 L234.857,289.074 C234.052,289.557 233.165,289.788 232.29,289.788 C230.591,289.788 228.936,288.922 227.998,287.359 C226.577,284.991 227.345,281.92 229.713,280.5 L347.798,209.649 C350.165,208.226 353.236,208.997 354.657,211.364 C356.078,213.731 355.31,216.803 352.942,218.223 Z" id="Shape"></path>
        </g>
    </g>
</svg>