<?xml version="1.0" encoding="UTF-8"?>
<svg width="768px" height="456px" viewBox="0 0 768 456" version="1.1" xmlns="http://www.w3.org/2000/svg" xmlns:xlink="http://www.w3.org/1999/xlink">
    <!-- Generator: Sketch 52.1 (67048) - http://www.bohemiancoding.com/sketch -->
    <title>iconfinder_waves_1076726</title>
    <desc>Created with Sketch.</desc>
    <g id="Page-1" stroke="none" stroke-width="1" fill="none" fill-rule="evenodd">
        <g id="iconfinder_waves_1076726" fill="#E0E0D1">
            <path d="M48.072,287.943 C59.545,287.943 73.714,284.669 90.646,275.179 C101.663,269.004 114.013,257.922 128.312,245.101 C152.451,223.449 185.591,193.868 207.479,197.329 C215.45,198.597 222.413,204.576 228.782,215.626 C232.796,222.597 241.7,224.969 248.663,220.963 C255.626,216.95 258.022,208.045 254.001,201.082 C243.13,182.208 229.025,171.269 212.078,168.563 C176.443,162.818 140.516,195.037 108.87,223.424 C96.398,234.604 84.609,245.174 76.412,249.78 C59.148,259.465 44.141,261.511 35.253,255.394 C32.961,253.827 31.499,252.006 30.614,250.397 C37.024,250.3 42.842,245.945 44.499,239.429 C46.482,231.629 41.77,223.708 33.978,221.734 C18.63,217.81 8.328,224.902 3.795,232.816 C-3.062,244.807 0.512,262.129 12.285,273.992 C16.549,278.299 28.346,287.943 48.072,287.943 Z" id="Path"></path>
            <path d="M214.482,238.375 C216.464,230.582 211.76,222.662 203.969,220.679 C188.63,216.779 178.311,223.848 173.777,231.761 C166.92,243.753 170.495,261.075 182.259,272.937 C186.532,277.236 198.313,286.879 218.041,286.879 C229.521,286.879 243.698,283.613 260.63,274.107 C271.631,267.932 283.98,256.858 298.279,244.038 C322.409,222.394 355.42,192.812 377.463,196.257 C385.425,197.541 392.396,203.521 398.765,214.57 C402.78,221.541 411.692,223.914 418.646,219.908 C425.609,215.894 428.006,206.989 423.985,200.027 C413.114,181.153 399.009,170.209 382.054,167.5 C346.394,161.841 310.491,193.982 278.838,222.362 C266.366,233.55 254.586,244.111 246.38,248.71 C229.115,258.403 214.109,260.442 205.228,254.34 C202.945,252.765 201.482,250.952 200.589,249.352 C207.008,249.261 212.824,244.891 214.482,238.375 Z" id="Path"></path>
            <path d="M389.796,289.154 C401.275,289.154 415.453,285.887 432.385,276.382 C443.386,270.207 455.735,259.142 470.035,246.32 C494.165,224.668 527.183,195.029 549.201,198.531 C557.18,199.815 564.142,205.795 570.504,216.844 C574.518,223.814 583.439,226.195 590.393,222.181 C597.365,218.168 599.754,209.263 595.74,202.3 C584.861,183.43 570.749,172.483 553.802,169.773 C518.134,164.102 482.239,196.255 450.585,224.635 C438.122,235.823 426.342,246.385 418.136,250.983 C400.879,260.668 385.865,262.715 376.984,256.605 C374.701,255.038 373.239,253.226 372.345,251.617 C378.764,251.528 384.58,247.165 386.239,240.657 C388.22,232.866 383.509,224.936 375.725,222.954 C360.361,219.046 350.06,226.106 345.534,234.036 C338.676,246.02 342.243,263.333 354.015,275.203 C358.28,279.502 370.069,289.154 389.796,289.154 Z" id="Path"></path>
            <path d="M723.784,168.714 C688.117,163.003 652.221,195.184 620.585,223.564 C608.106,234.752 596.315,245.322 588.11,249.928 C570.853,259.596 555.863,261.66 546.959,255.55 C544.676,253.974 543.214,252.17 542.328,250.562 C548.746,250.464 554.556,246.109 556.213,239.594 C558.204,231.801 553.491,223.881 545.692,221.898 C530.369,217.965 520.034,225.058 515.509,232.98 C508.659,244.956 512.219,262.278 523.99,274.139 C528.256,278.446 540.053,288.098 559.771,288.089 C571.251,288.089 585.42,284.816 602.353,275.325 C613.37,269.15 625.719,258.068 640.018,245.248 C664.149,223.604 697.167,193.917 719.184,197.475 C727.163,198.743 734.125,204.739 740.488,215.772 C744.518,222.751 753.422,225.124 760.378,221.118 C767.349,217.104 769.737,208.2 765.723,201.229 C754.845,182.355 740.732,171.419 723.784,168.714 Z" id="Path"></path>
            <path d="M207.478,363.722 C215.449,364.989 222.412,370.969 228.781,382.019 C232.795,388.982 241.699,391.362 248.662,387.357 C255.625,383.343 258.021,374.439 254,367.476 C243.129,348.611 229.024,337.674 212.077,334.96 C176.442,329.273 140.515,361.431 108.869,389.818 C96.397,400.998 84.608,411.568 76.411,416.174 C59.147,425.859 44.14,427.906 35.252,421.788 C32.96,420.22 31.498,418.4 30.613,416.791 C37.023,416.693 42.841,412.339 44.498,405.822 C46.481,398.023 41.769,390.101 33.977,388.127 C18.629,384.211 8.327,391.296 3.794,399.209 C-3.063,411.201 0.511,428.522 12.284,440.386 C16.55,444.692 28.347,454.335 48.073,454.335 C59.546,454.335 73.715,451.061 90.647,441.571 C101.664,435.396 114.014,424.314 128.313,411.493 C152.45,389.842 185.591,360.277 207.478,363.722 Z" id="Path"></path>
            <path d="M377.463,362.649 C385.425,363.933 392.396,369.913 398.765,380.962 C402.78,387.933 411.692,390.313 418.646,386.3 C425.609,382.286 428.006,373.381 423.985,366.418 C413.114,347.553 399.009,336.609 382.054,333.903 C346.394,328.231 310.491,360.373 278.838,388.753 C266.366,399.941 254.586,410.503 246.38,415.101 C229.115,424.787 214.109,426.834 205.228,420.732 C202.945,419.156 201.482,417.344 200.589,415.744 C207.008,415.655 212.824,411.283 214.482,404.768 C216.464,396.976 211.76,389.054 203.969,387.072 C188.63,383.164 178.311,390.241 173.777,398.154 C166.92,410.146 170.495,427.468 182.259,439.33 C186.532,443.628 198.313,453.272 218.041,453.272 C229.521,453.272 243.698,450.005 260.63,440.5 C271.631,434.325 283.98,423.251 298.279,410.432 C322.41,388.794 355.42,359.156 377.463,362.649 Z" id="Path"></path>
            <path d="M549.201,364.924 C557.18,366.208 564.142,372.189 570.504,383.238 C574.518,390.209 583.439,392.581 590.393,388.574 C597.365,384.561 599.754,375.656 595.74,368.693 C584.861,349.829 570.749,338.884 553.802,336.178 C518.134,330.484 482.239,362.649 450.585,391.029 C438.122,402.216 426.342,412.779 418.136,417.377 C400.879,427.062 385.865,429.109 376.984,423 C374.701,421.431 373.239,419.62 372.345,418.011 C378.764,417.921 384.58,413.559 386.239,407.051 C388.22,399.26 383.509,391.329 375.725,389.348 C360.361,385.439 350.06,392.499 345.534,400.43 C338.676,412.412 342.243,429.727 354.015,441.597 C358.281,445.895 370.07,455.547 389.797,455.547 C401.276,455.547 415.454,452.28 432.386,442.775 C443.387,436.6 455.736,425.536 470.036,412.714 C494.165,391.062 527.184,361.456 549.201,364.924 Z" id="Path"></path>
            <path d="M723.784,335.114 C688.117,329.363 652.221,361.577 620.585,389.957 C608.106,401.144 596.315,411.714 588.11,416.321 C570.853,425.989 555.863,428.052 546.959,421.942 C544.676,420.367 543.214,418.563 542.328,416.955 C548.746,416.857 554.556,412.502 556.213,405.986 C558.204,398.194 553.491,390.273 545.692,388.29 C530.369,384.358 520.034,391.451 515.509,399.372 C508.659,411.35 512.219,428.671 523.99,440.532 C528.256,444.839 540.053,454.49 559.771,454.482 C571.251,454.482 585.42,451.209 602.353,441.718 C613.37,435.543 625.719,424.461 640.018,411.641 C664.149,389.996 697.167,360.341 719.184,363.868 C727.163,365.136 734.125,371.131 740.488,382.165 C744.518,389.136 753.422,391.524 760.378,387.512 C767.349,383.497 769.737,374.594 765.723,367.622 C754.845,348.756 740.732,337.82 723.784,335.114 Z" id="Path"></path>
            <path d="M48.072,121.542 C59.545,121.542 73.714,118.271 90.646,108.774 C101.663,102.599 114.013,91.522 128.312,78.696 C152.451,57.048 185.591,27.446 207.479,30.923 C215.45,32.194 222.413,38.178 228.782,49.22 C232.796,56.191 241.7,58.575 248.663,54.562 C255.626,50.549 258.022,41.644 254.001,34.677 C243.13,15.816 229.025,4.876 212.078,2.17 C176.443,-3.57 140.516,28.632 108.87,57.02 C96.398,68.208 84.609,78.774 76.412,83.376 C59.148,93.061 44.141,95.108 35.253,88.994 C32.961,87.422 31.499,85.602 30.614,83.997 C37.024,83.904 42.842,79.545 44.499,73.025 C46.482,65.233 41.77,57.308 33.978,55.329 C18.63,51.421 8.328,58.498 3.795,66.415 C-3.062,78.407 0.512,95.725 12.285,107.591 C16.549,111.895 28.346,121.542 48.072,121.542 Z" id="Path"></path>
            <path d="M205.228,87.938 C202.945,86.362 201.482,84.55 200.589,82.95 C207.008,82.856 212.824,78.494 214.482,71.977 C216.464,64.182 211.76,56.26 203.969,54.278 C188.63,50.374 178.311,57.446 173.777,65.364 C166.92,77.356 170.495,94.67 182.259,106.536 C186.532,110.834 198.313,120.482 218.041,120.482 C229.521,120.478 243.698,117.208 260.63,107.71 C271.631,101.531 283.98,90.457 298.279,77.637 C322.409,55.997 355.42,26.374 377.463,29.86 C385.425,31.136 392.396,37.123 398.765,48.165 C402.78,55.136 411.692,57.516 418.646,53.506 C425.609,49.493 428.006,40.588 423.985,33.621 C413.114,14.755 399.009,3.816 382.054,1.106 C346.394,-4.549 310.491,27.576 278.838,55.96 C266.366,67.144 254.586,77.71 246.38,82.313 C229.114,91.997 214.108,94.044 205.228,87.938 Z" id="Path"></path>
            <path d="M376.982,90.209 C374.699,88.637 373.237,86.825 372.343,85.22 C378.762,85.127 384.578,80.768 386.237,74.256 C388.218,66.46 383.507,58.535 375.723,56.552 C360.359,52.645 350.058,59.709 345.532,67.63 C338.674,79.618 342.241,96.936 354.013,108.802 C358.279,113.104 370.068,122.752 389.795,122.752 C401.274,122.752 415.452,119.482 432.384,109.981 C443.385,103.806 455.734,92.736 470.034,79.916 C494.164,58.268 527.182,28.674 549.2,32.135 C557.179,33.41 564.141,39.399 570.503,50.44 C574.517,57.407 583.438,59.787 590.392,55.782 C597.364,51.768 599.753,42.864 595.739,35.897 C584.86,17.032 570.748,6.092 553.801,3.382 C518.133,-2.264 482.238,29.857 450.584,58.236 C438.121,69.424 426.341,79.986 418.135,84.588 C400.878,94.268 385.863,96.315 376.982,90.209 Z" id="Path"></path>
            <path d="M546.959,89.145 C544.676,87.577 543.214,85.765 542.328,84.161 C548.746,84.067 554.556,79.708 556.213,73.192 C558.204,65.4 553.491,57.475 545.692,55.492 C530.369,51.564 520.034,58.657 515.509,66.575 C508.659,78.558 512.219,95.876 523.99,107.742 C528.256,112.04 540.053,121.693 559.771,121.688 C571.251,121.688 585.42,118.418 602.353,108.92 C613.37,102.745 625.719,91.667 640.018,78.842 C664.149,57.202 697.167,27.559 719.184,31.073 C727.163,32.344 734.125,38.332 740.488,49.374 C744.518,56.345 753.422,58.726 760.378,54.716 C767.349,50.698 769.737,41.798 765.723,34.831 C754.845,15.965 740.733,5.025 723.785,2.32 C688.118,-3.404 652.222,28.782 620.586,57.161 C608.107,68.349 596.316,78.919 588.111,83.522 C570.854,93.2 555.863,95.259 546.959,89.145 Z" id="Path"></path>
        </g>
    </g>
</svg>