<svg width="429" height="429" xmlns="http://www.w3.org/2000/svg"><g id="Page-1" stroke="none" stroke-width="1" fill="none" fill-rule="evenodd"><g id="iconfinder_play_1055007"><circle id="Oval" fill="#C75C5C" cx="214.5" cy="214.5" r="214.5"/><path d="M214.5 106.818c66.543 0 120.682 54.14 120.682 120.682 0 66.543-54.14 120.682-120.682 120.682-66.543 0-120.682-54.14-120.682-120.682 0-66.543 54.14-120.682 120.682-120.682zm0-26.818C133.04 80 67 146.04 67 227.5S133.04 375 214.5 375 362 308.96 362 227.5 295.96 80 214.5 80z" id="Shape" fill="#231F20" fill-rule="nonzero" opacity=".2"/><path d="M214.5 93.818c66.543 0 120.682 54.14 120.682 120.682 0 66.543-54.14 120.682-120.682 120.682-66.543 0-120.682-54.14-120.682-120.682 0-66.543 54.14-120.682 120.682-120.682zm0-26.818C133.04 67 67 133.04 67 214.5S133.04 362 214.5 362 362 295.96 362 214.5 295.96 67 214.5 67z" id="Shape" fill="#E0E0D1" fill-rule="nonzero"/><path d="M184.924 154.987c4.93-1.325 7.985-1.987 9.168-1.987 1.178 0 4.18.657 9.008 1.97a8 8 0 0 1 5.9 7.72v130.045a8 8 0 0 1-5.707 7.664c-5.308 1.588-8.553 2.382-9.735 2.382-1.163 0-4.158-.768-8.985-2.305a8 8 0 0 1-5.573-7.623v-130.14a8 8 0 0 1 5.924-7.726z" id="Rectangle" fill="#A65050" fill-rule="nonzero"/><path d="M174.924 141.987c4.93-1.325 7.985-1.987 9.168-1.987 1.178 0 4.18.657 9.008 1.97a8 8 0 0 1 5.9 7.72v130.045a8 8 0 0 1-5.707 7.664c-5.308 1.588-8.553 2.382-9.735 2.382-1.163 0-4.158-.768-8.985-2.305a8 8 0 0 1-5.573-7.623v-130.14a8 8 0 0 1 5.924-7.726z" id="Rectangle" fill="#F5CF87" fill-rule="nonzero"/><path d="M244.924 154.987c4.93-1.325 7.985-1.987 9.168-1.987 1.178 0 4.18.657 9.008 1.97a8 8 0 0 1 5.9 7.72v130.045a8 8 0 0 1-5.707 7.664c-5.308 1.588-8.553 2.382-9.735 2.382-1.163 0-4.158-.768-8.985-2.305a8 8 0 0 1-5.573-7.623v-130.14a8 8 0 0 1 5.924-7.726z" id="Rectangle" fill="#A65050" fill-rule="nonzero"/><path d="M234.924 141.987c4.93-1.325 7.985-1.987 9.168-1.987 1.178 0 4.18.657 9.008 1.97a8 8 0 0 1 5.9 7.72v130.045a8 8 0 0 1-5.707 7.664c-5.308 1.588-8.553 2.382-9.735 2.382-1.163 0-4.158-.768-8.985-2.305a8 8 0 0 1-5.573-7.623v-130.14a8 8 0 0 1 5.924-7.726z" id="Rectangle" fill="#F5CF87" fill-rule="nonzero"/></g></g></svg>