<svg width="429" height="429" xmlns="http://www.w3.org/2000/svg"><g id="Page-1" stroke="none" stroke-width="1" fill="none" fill-rule="evenodd"><g id="iconfinder_play_1055007"><circle id="Oval" fill="#C75C5C" cx="214.5" cy="214.5" r="214.5"/><path d="M214.5 106.818c66.543 0 120.682 54.14 120.682 120.682 0 66.543-54.14 120.682-120.682 120.682-66.543 0-120.682-54.14-120.682-120.682 0-66.543 54.14-120.682 120.682-120.682zm0-26.818C133.04 80 67 146.04 67 227.5S133.04 375 214.5 375 362 308.96 362 227.5 295.96 80 214.5 80z" id="Shape" fill="#231F20" fill-rule="nonzero" opacity=".2"/><g id="Group" opacity=".2" transform="translate(174 156)" fill="#231F20"><path d="M13.375 142.454c-2.307 0-4.614-.594-6.688-1.79A13.36 13.36 0 0 1 0 129.09V13.909A13.36 13.36 0 0 1 6.688 2.337a13.393 13.393 0 0 1 13.375 0l80.25 57.59A13.352 13.352 0 0 1 107 71.5a13.35 13.35 0 0 1-6.688 11.573l-80.25 57.59a13.436 13.436 0 0 1-6.687 1.791z" id="Path"/></g><path d="M214.5 93.818c66.543 0 120.682 54.14 120.682 120.682 0 66.543-54.14 120.682-120.682 120.682-66.543 0-120.682-54.14-120.682-120.682 0-66.543 54.14-120.682 120.682-120.682zm0-26.818C133.04 67 67 133.04 67 214.5S133.04 362 214.5 362 362 295.96 362 214.5 295.96 67 214.5 67z" id="Shape" fill="#E0E0D1" fill-rule="nonzero"/><path d="M187.375 286A13.37 13.37 0 0 1 174 272.628V157.37a13.37 13.37 0 0 1 6.688-11.58 13.386 13.386 0 0 1 13.375 0l80.25 57.628a13.37 13.37 0 0 1 0 23.161l-80.25 57.628a13.429 13.429 0 0 1-6.688 1.792z" id="Path" fill="#F5CF87"/></g></g></svg>