<svg width="300" height="338" xmlns="http://www.w3.org/2000/svg"><g id="Page-1" stroke="none" stroke-width="1" fill="none" fill-rule="evenodd"><g id="iconfinder_rain_727683" fill="#E0E0D1"><path d="M.79 208.785S.162 366.926 66.334 333.258C129.046 301.35.791 208.785.791 208.785zm114.973 6.873s-.552 134.973 55.937 106.233c53.527-27.232-55.937-106.233-55.937-106.233zm-47.101-53.816c53.519-27.224-55.91-106.233-55.91-106.233s-.561 134.971 55.91 106.233zm155.82-1.489s-.578 134.972 55.928 106.233c53.511-27.224-55.928-106.233-55.928-106.233zM121.437.303s-.543 134.972 55.928 106.233C230.893 79.303 121.437.303 121.437.303zm31.715 193.833c39.063-19.869-40.822-77.539-40.822-77.539s-.403 98.528 40.822 77.539zm135.7-40.429c39.063-19.868-40.823-77.539-40.823-77.539s-.403 98.528 40.823 77.539z" id="Path"/></g></g></svg>