<svg width="414" height="398" xmlns="http://www.w3.org/2000/svg"><g id="Page-1" stroke="none" stroke-width="1" fill="none" fill-rule="evenodd"><g id="iconfinder_121_Alpine_Arctic_Canada_Pine_Trees_Scandinavia_4783091" fill="#E0E0D1" fill-rule="nonzero"><path d="M383.746 247.643c-3.802-5.368-4.28-12.345-1.25-18.203 2.944-5.694 8.7-9.236 15.021-9.236 1.627 0 2.414-1.19 2.677-1.698.228-.438.881-2.01-.237-3.588l-42.396-59.906a15.286 15.286 0 0 1-1.084-15.855c2.559-4.946 7.561-8.157 13.056-8.157h1.009c2.319 0 3.395-1.551 3.75-2.277.301-.616 1.155-2.652-.491-4.766l-78.69-101.02-32.263 38.231-.003.005-52.868 62.649c-.88 1.043-1.113 2.124-1.09 3.023a5.035 5.035 0 0 0 .451 1.935c.349.75 1.416 2.496 3.789 2.496 5.495 0 10.497 3.073 13.056 8.019 2.628 5.081 2.212 11.13-1.085 15.786l-42.396 59.871c-1.118 1.578-.464 3.132-.237 3.571.263.508 1.049 1.689 2.677 1.689 2.37 0 4.661.497 6.753 1.419 3.488 1.537 6.426 4.253 8.267 7.812a17.529 17.529 0 0 1 1.615 11.629 17.499 17.499 0 0 1-2.865 6.573l-27.157 38.346c-.232.328-.442.658-.643.989-.092.154-.177.311-.264.466a14.253 14.253 0 0 0-.57 1.127 14.75 14.75 0 0 0-.436 1.064l-.026.066a14.622 14.622 0 0 0-.7 2.823c-.003.02-.018.038-.02.058-.025.181-.06.362-.077.544-.019.195-.083.392-.093.586-.005.091-.09.182-.093.272-.01.296-.178.591-.178.882v.029c0 1.776.592 3.463 1.165 4.974.004.01.178.019.182.028.104.274.217.539.334.802.055.122.115.239.173.36.078.162.154.316.236.474.096.183.197.341.299.518.056.098.109.162.167.258 2.576 4.254 6.937 6.688 11.857 6.688h66.011c10.86 0 19.576 9.162 19.576 20.241v40.999c0 7.741 4.268 14.534 10.445 17.76H158.655v-70.356c0-1.138.561-2.233 1.259-3.111.262-.875.672-2.961.819-4.252.203-1.781.391-3.431.747-4.891-.073-.152-.133-.31-.203-.463a22.435 22.435 0 0 1-.635-1.529 25.74 25.74 0 0 1-.313-.868 25.71 25.71 0 0 1-.205-.65 24.584 24.584 0 0 1-.293-1.019c-.042-.162-.08-.326-.119-.489a24.826 24.826 0 0 1-.26-1.198c-.019-.102-.034-.203-.052-.305a25.137 25.137 0 0 1-.219-1.505 24.764 24.764 0 0 1 2.65-14.261c.063-.12.136-.236.201-.356.202-.372.404-.743.626-1.107.191-.313.401-.618.607-.924.112-.167.214-.339.331-.503l27.154-38.347c1.657-2.339 1.854-5.266.529-7.828-1.239-2.396-3.534-3.825-6.138-3.825-4.867 0-9.296-2.719-11.56-7.096a13.396 13.396 0 0 1 .958-13.944l42.397-59.871c1.144-1.616 1.28-3.639.363-5.412-.407-.786-1.627-2.613-4.174-2.613-5.558 0-10.484-3.173-12.858-8.282a14.803 14.803 0 0 1-1.395-6.086c-.037-3.419 1.142-6.787 3.459-9.534l46.71-55.353a4.992 4.992 0 0 1-.384-2.767c.368-2.515.555-5.056.555-7.552C249.212 23.193 226.019 0 197.51 0c-28.509 0-51.702 23.193-51.702 51.702 0 1.289.062 2.674.188 4.236a5 5 0 0 1-9.005 3.376c-7.263-9.829-18.88-15.697-31.077-15.697a38.67 38.67 0 0 0-18.137 4.522 5.002 5.002 0 0 1-6.004-.996c-7.39-7.899-17.404-12.25-28.2-12.25-21.293 0-38.617 17.324-38.617 38.617 0 18.133 12.334 33.61 29.995 37.638a5 5 0 0 1 2.414 8.42 21.027 21.027 0 0 0-6.239 15.006c0 .172.007.344.013.515l.007.195a5 5 0 0 1-4.005 5.061c-17.909 3.626-30.908 19.542-30.908 37.846 0 21.294 17.324 38.617 38.617 38.617.354 0 .705-.014 1.056-.025l.286-.01a5 5 0 0 1 4.877 6.671 21.117 21.117 0 0 0-1.22 7.088c0 11.673 9.497 21.17 21.17 21.17 1.329 0 2.677-.13 4.01-.385a4.997 4.997 0 0 1 5.225 7.483 29.85 29.85 0 0 0-4.246 15.349c0 16.484 13.399 29.895 29.883 29.895 1.253 0 2.497-.085 3.847-.259a4.948 4.948 0 0 1 4.948 2.497c2.729 4.825 6.668 8.801 11.555 11.497 1.595.88 2.412 2.557 2.412 4.378v65.842H5a5 5 0 1 0 0 10h390a5 5 0 0 0 5-5 5 5 0 0 0-5-5h-99.67c6.124-3.145 10.325-9.685 10.325-17.255V329.24c0-11.079 9.188-20.241 20.049-20.241h73.883c5.26 0 9.882-2.792 12.365-7.594 2.621-5.067 2.228-10.821-1.052-15.452l-27.154-38.31zm-274.758-27.748c-1.05.069-2.079.104-3.087.104-9.291 0-16.814-2.967-22.396-8.841-12.457-13.109-9.929-35.876-9.815-36.839a5 5 0 0 1 9.932 1.166c-.033.29-2.051 19.152 7.153 28.807 4.099 4.298 9.84 6.144 17.548 5.624 2.759-.162 5.138 1.902 5.321 4.656a5 5 0 0 1-4.656 5.323zm128.396-25.865l70.852-47.234a5 5 0 1 1 5.547 8.321l-70.852 47.234a4.995 4.995 0 0 1-6.934-1.387 5 5 0 0 1 1.387-6.934zm115.558 24.193l-118.085 70.851a4.997 4.997 0 0 1-6.859-1.715 4.998 4.998 0 0 1 1.715-6.859l118.085-70.851a4.998 4.998 0 0 1 6.859 1.715 4.999 4.999 0 0 1-1.715 6.859z" id="Shape"/></g></g></svg>