<svg width="768" height="456" xmlns="http://www.w3.org/2000/svg"><g id="Page-1" stroke="none" stroke-width="1" fill="none" fill-rule="evenodd"><g id="iconfinder_waves_1076726" fill="#E0E0D1"><path d="M48.072 287.943c11.473 0 25.642-3.274 42.574-12.764 11.017-6.175 23.367-17.257 37.666-30.078 24.139-21.652 57.279-51.233 79.167-47.772 7.971 1.268 14.934 7.247 21.303 18.297 4.014 6.971 12.918 9.343 19.881 5.337 6.963-4.013 9.359-12.918 5.338-19.881-10.871-18.874-24.976-29.813-41.923-32.519-35.635-5.745-71.562 26.474-103.208 54.861-12.472 11.18-24.261 21.75-32.458 26.356-17.264 9.685-32.271 11.731-41.159 5.614-2.292-1.567-3.754-3.388-4.639-4.997 6.41-.097 12.228-4.452 13.885-10.968 1.983-7.8-2.729-15.721-10.521-17.695-15.348-3.924-25.65 3.168-30.183 11.082-6.857 11.991-3.283 29.313 8.49 41.176 4.264 4.307 16.061 13.951 35.787 13.951z" id="Path"/><path d="M214.482 238.375c1.982-7.793-2.722-15.713-10.513-17.696-15.339-3.9-25.658 3.169-30.192 11.082-6.857 11.992-3.282 29.314 8.482 41.176 4.273 4.299 16.054 13.942 35.782 13.942 11.48 0 25.657-3.266 42.589-12.772 11.001-6.175 23.35-17.249 37.649-30.069 24.13-21.644 57.141-51.226 79.184-47.781 7.962 1.284 14.933 7.264 21.302 18.313 4.015 6.971 12.927 9.344 19.881 5.338 6.963-4.014 9.36-12.919 5.339-19.881-10.871-18.874-24.976-29.818-41.931-32.527-35.66-5.659-71.563 26.482-103.216 54.862-12.472 11.188-24.252 21.749-32.458 26.348-17.265 9.693-32.271 11.732-41.152 5.63-2.283-1.575-3.746-3.388-4.639-4.988 6.419-.091 12.235-4.461 13.893-10.977z" id="Path"/><path d="M389.796 289.154c11.479 0 25.657-3.267 42.589-12.772 11.001-6.175 23.35-17.24 37.65-30.062 24.13-21.652 57.148-51.291 79.166-47.789 7.979 1.284 14.941 7.264 21.303 18.313 4.014 6.97 12.935 9.351 19.889 5.337 6.972-4.013 9.361-12.918 5.347-19.881-10.879-18.87-24.991-29.817-41.938-32.527-35.668-5.671-71.563 26.482-103.217 54.862-12.463 11.188-24.243 21.75-32.449 26.348-17.257 9.685-32.271 11.732-41.152 5.622-2.283-1.567-3.745-3.379-4.639-4.988 6.419-.089 12.235-4.452 13.894-10.96 1.981-7.791-2.73-15.721-10.514-17.703-15.364-3.908-25.665 3.152-30.191 11.082-6.858 11.984-3.291 29.297 8.481 41.167 4.265 4.299 16.054 13.951 35.781 13.951z" id="Path"/><path d="M723.784 168.714c-35.667-5.711-71.563 26.47-103.199 54.85-12.479 11.188-24.27 21.758-32.475 26.364-17.257 9.668-32.247 11.732-41.151 5.622-2.283-1.576-3.745-3.38-4.631-4.988 6.418-.098 12.228-4.453 13.885-10.968 1.991-7.793-2.722-15.713-10.521-17.696-15.323-3.933-25.658 3.16-30.183 11.082-6.85 11.976-3.29 29.298 8.481 41.159 4.266 4.307 16.063 13.959 35.781 13.95 11.48 0 25.649-3.273 42.582-12.764 11.017-6.175 23.366-17.257 37.665-30.077 24.131-21.644 57.149-51.331 79.166-47.773 7.979 1.268 14.941 7.264 21.304 18.297 4.03 6.979 12.934 9.352 19.89 5.346 6.971-4.014 9.359-12.918 5.345-19.889-10.878-18.874-24.991-29.81-41.939-32.515zM207.478 363.722c7.971 1.267 14.934 7.247 21.303 18.297 4.014 6.963 12.918 9.343 19.881 5.338 6.963-4.014 9.359-12.918 5.338-19.881-10.871-18.865-24.976-29.802-41.923-32.516-35.635-5.687-71.562 26.471-103.208 54.858-12.472 11.18-24.261 21.75-32.458 26.356-17.264 9.685-32.271 11.732-41.159 5.614-2.292-1.568-3.754-3.388-4.639-4.997 6.41-.098 12.228-4.452 13.885-10.969 1.983-7.799-2.729-15.721-10.521-17.695-15.348-3.916-25.65 3.169-30.183 11.082-6.857 11.992-3.283 29.313 8.49 41.177 4.266 4.306 16.063 13.949 35.789 13.949 11.473 0 25.642-3.274 42.574-12.764 11.017-6.175 23.367-17.257 37.666-30.078 24.137-21.651 57.278-51.216 79.165-47.771z" id="Path"/><path d="M377.463 362.649c7.962 1.284 14.933 7.264 21.302 18.313 4.015 6.971 12.927 9.351 19.881 5.338 6.963-4.014 9.36-12.919 5.339-19.882-10.871-18.865-24.976-29.809-41.931-32.515-35.66-5.672-71.563 26.47-103.216 54.85-12.472 11.188-24.252 21.75-32.458 26.348-17.265 9.686-32.271 11.733-41.152 5.631-2.283-1.576-3.746-3.388-4.639-4.988 6.419-.089 12.235-4.461 13.893-10.976 1.982-7.792-2.722-15.714-10.513-17.696-15.339-3.908-25.658 3.169-30.192 11.082-6.857 11.992-3.282 29.314 8.482 41.176 4.273 4.298 16.054 13.942 35.782 13.942 11.48 0 25.657-3.267 42.589-12.772 11.001-6.175 23.35-17.249 37.649-30.068 24.131-21.638 57.141-51.276 79.184-47.783z" id="Path"/><path d="M549.201 364.924c7.979 1.284 14.941 7.265 21.303 18.314 4.014 6.971 12.935 9.343 19.889 5.336 6.972-4.013 9.361-12.918 5.347-19.881-10.879-18.864-24.991-29.809-41.938-32.515-35.668-5.694-71.563 26.471-103.217 54.851-12.463 11.187-24.243 21.75-32.449 26.348-17.257 9.685-32.271 11.732-41.152 5.623-2.283-1.569-3.745-3.38-4.639-4.989 6.419-.09 12.235-4.452 13.894-10.96 1.981-7.791-2.73-15.722-10.514-17.703-15.364-3.909-25.665 3.151-30.191 11.082-6.858 11.982-3.291 29.297 8.481 41.167 4.266 4.298 16.055 13.95 35.782 13.95 11.479 0 25.657-3.267 42.589-12.772 11.001-6.175 23.35-17.239 37.65-30.061 24.129-21.652 57.148-51.258 79.165-47.79z" id="Path"/><path d="M723.784 335.114c-35.667-5.751-71.563 26.463-103.199 54.843-12.479 11.187-24.27 21.757-32.475 26.364-17.257 9.668-32.247 11.731-41.151 5.621-2.283-1.575-3.745-3.379-4.631-4.987 6.418-.098 12.228-4.453 13.885-10.969 1.991-7.792-2.722-15.713-10.521-17.696-15.323-3.932-25.658 3.161-30.183 11.082-6.85 11.978-3.29 29.299 8.481 41.16 4.266 4.307 16.063 13.958 35.781 13.95 11.48 0 25.649-3.273 42.582-12.764 11.017-6.175 23.366-17.257 37.665-30.077 24.131-21.645 57.149-51.3 79.166-47.773 7.979 1.268 14.941 7.263 21.304 18.297 4.03 6.971 12.934 9.359 19.89 5.347 6.971-4.015 9.359-12.918 5.345-19.89-10.878-18.866-24.991-29.802-41.939-32.508zM48.072 121.542c11.473 0 25.642-3.271 42.574-12.768 11.017-6.175 23.367-17.252 37.666-30.078 24.139-21.648 57.279-51.25 79.167-47.773 7.971 1.271 14.934 7.255 21.303 18.297 4.014 6.971 12.918 9.355 19.881 5.342 6.963-4.013 9.359-12.918 5.338-19.885C243.13 15.816 229.025 4.876 212.078 2.17c-35.635-5.74-71.562 26.462-103.208 54.85-12.472 11.188-24.261 21.754-32.458 26.356-17.264 9.685-32.271 11.732-41.159 5.618-2.292-1.572-3.754-3.392-4.639-4.997 6.41-.093 12.228-4.452 13.885-10.972 1.983-7.792-2.729-15.717-10.521-17.696-15.348-3.908-25.65 3.169-30.183 11.086-6.857 11.992-3.283 29.31 8.49 41.176 4.264 4.304 16.061 13.951 35.787 13.951z" id="Path"/><path d="M205.228 87.938c-2.283-1.576-3.746-3.388-4.639-4.988 6.419-.094 12.235-4.456 13.893-10.973 1.982-7.795-2.722-15.717-10.513-17.699-15.339-3.904-25.658 3.168-30.192 11.086-6.857 11.992-3.282 29.306 8.482 41.172 4.273 4.298 16.054 13.946 35.782 13.946 11.48-.004 25.657-3.274 42.589-12.772 11.001-6.179 23.35-17.253 37.649-30.073 24.13-21.64 57.141-51.263 79.184-47.777 7.962 1.276 14.933 7.263 21.302 18.305 4.015 6.971 12.927 9.351 19.881 5.341 6.963-4.013 9.36-12.918 5.339-19.885-10.871-18.866-24.976-29.805-41.931-32.515-35.66-5.655-71.563 26.47-103.216 54.854-12.472 11.184-24.252 21.75-32.458 26.353-17.266 9.684-32.272 11.731-41.152 5.625z" id="Path"/><path d="M376.982 90.209c-2.283-1.572-3.745-3.384-4.639-4.989 6.419-.093 12.235-4.452 13.894-10.964 1.981-7.796-2.73-15.721-10.514-17.704-15.364-3.907-25.665 3.157-30.191 11.078-6.858 11.988-3.291 29.306 8.481 41.172 4.266 4.302 16.055 13.95 35.782 13.95 11.479 0 25.657-3.27 42.589-12.771 11.001-6.175 23.35-17.245 37.65-30.065 24.13-21.648 57.148-51.242 79.166-47.781 7.979 1.275 14.941 7.264 21.303 18.305 4.014 6.967 12.935 9.347 19.889 5.342 6.972-4.014 9.361-12.918 5.347-19.885-10.879-18.865-24.991-29.805-41.938-32.515-35.668-5.646-71.563 26.475-103.217 54.854-12.463 11.188-24.243 21.75-32.449 26.352-17.257 9.68-32.272 11.727-41.153 5.621z" id="Path"/><path d="M546.959 89.145c-2.283-1.568-3.745-3.38-4.631-4.984 6.418-.094 12.228-4.453 13.885-10.969 1.991-7.792-2.722-15.717-10.521-17.7-15.323-3.928-25.658 3.165-30.183 11.083-6.85 11.983-3.29 29.301 8.481 41.167 4.266 4.298 16.063 13.951 35.781 13.946 11.48 0 25.649-3.27 42.582-12.768 11.017-6.175 23.366-17.253 37.665-30.078 24.131-21.64 57.149-51.283 79.166-47.769 7.979 1.271 14.941 7.259 21.304 18.301 4.03 6.971 12.934 9.352 19.89 5.342 6.971-4.018 9.359-12.918 5.345-19.885-10.878-18.866-24.99-29.806-41.938-32.511-35.667-5.724-71.563 26.462-103.199 54.841-12.479 11.188-24.27 21.758-32.475 26.361-17.257 9.678-32.248 11.737-41.152 5.623z" id="Path"/></g></g></svg>